<?xml version="1.0" standalone="no"?>
<!DOCTYPE svg PUBLIC "-//W3C//DTD SVG 20010904//EN"
 "http://www.w3.org/TR/2001/REC-SVG-20010904/DTD/svg10.dtd">
<svg version="1.0" xmlns="http://www.w3.org/2000/svg"
 width="260.000000pt" height="260.000000pt" viewBox="0 0 260.000000 260.000000"
 preserveAspectRatio="xMidYMid meet">
<metadata>
Created by potrace 1.11, written by Peter Selinger 2001-2013
</metadata>
<g transform="translate(0.000000,260.000000) scale(0.100000,-0.100000)"
fill="#000000" stroke="none">
<path d="M245 2113 c12 -216 20 -328 31 -433 3 -30 8 -75 9 -100 2 -25 6 -65
10 -90 3 -25 7 -64 10 -87 6 -48 13 -101 20 -153 3 -19 8 -55 11 -80 2 -25 7
-52 9 -60 3 -8 7 -33 10 -55 8 -50 40 -216 55 -281 24 -102 82 -271 113 -329
l32 -60 552 -3 553 -2 25 40 c27 42 85 185 85 207 0 8 14 13 38 13 223 0 478
160 589 370 67 127 87 217 81 369 -6 135 -31 221 -97 329 -85 140 -236 264
-368 303 l-43 12 6 94 7 93 -872 0 -871 0 5 -97z m1823 -474 c169 -171 162
-436 -14 -599 -46 -43 -126 -85 -181 -96 l-30 -6 14 64 c7 34 16 83 19 108 2
25 7 52 9 60 2 8 6 34 9 58 4 23 9 61 12 85 3 23 8 60 10 82 2 22 6 54 8 70 3
17 8 66 12 110 3 44 8 87 10 95 1 8 3 23 3 33 1 16 3 16 39 -2 20 -10 56 -39
80 -62z"/>
</g>
</svg>
